# xmcd
#
# Track frame offsets:
#	150
#	21600
#	34795
#	57851
#	83950
#	99849
#	122526
#	140925
#	161575
#	180412
#	194737
#
# Disc length: 2876 seconds
#
# Revision: 0
# Processed by: cddbd v1.5.2PL0 Copyright (c) Steve Scherf et al.
# Submitted via: EasyCDDAExtractor 12.0.4.1
#
DISCID=970b3a0b
DTITLE=Rory Gallagher - Jinx
DYEAR=1982
DGENRE=Blues
TTITLE0=Big Guns
TTITLE1=Bourbon
TTITLE2=Double Vision
TTITLE3=The Devil Made Me Do It
TTITLE4=Signals
TTITLE5=Jinxed
TTITLE6=Easy Come Easy Go
TTITLE7=Nothin' But the Devil (bonus)
TTITLE8=Ride On Red, Ride On 
TTITLE9=Lonley Mile (bonus)
TTITLE10=Loose Talk
EXTD=
EXTT0=
EXTT1=
EXTT2=
EXTT3=
EXTT4=
EXTT5=
EXTT6=
EXTT7=
EXTT8=
EXTT9=
EXTT10=
PLAYORDER=
